<svg width="131" height="48" viewBox="0 0 131 48" fill="none" xmlns="http://www.w3.org/2000/svg">
<path d="M79.875 24C79.875 18.8281 76.7188 15.7812 72.5234 15.7812C68.3203 15.7812 65.1719 18.8281 65.1719 24C65.1719 29.1641 68.3203 32.2187 72.5234 32.2187C76.7188 32.2187 79.875 29.1719 79.875 24ZM76.9609 24C76.9609 27.6406 75.1328 29.6172 72.5234 29.6172C69.9219 29.6172 68.0859 27.6406 68.0859 24C68.0859 20.3594 69.9219 18.3828 72.5234 18.3828C75.1328 18.3828 76.9609 20.3594 76.9609 24ZM85.3184 24.9687C85.3184 23.2344 86.3965 22.2344 87.9121 22.2344C89.3965 22.2344 90.2715 23.1797 90.2715 24.7969V32H93.0996V24.3594C93.0996 21.4609 91.459 19.8438 88.9668 19.8438C87.123 19.8438 85.9512 20.6797 85.3965 22.0391H85.2559V16H82.4902V32H85.3184V24.9687ZM99.4355 32.2422C101.318 32.2422 102.443 31.3594 102.959 30.3516H103.053V32H105.771V23.9687C105.771 20.7969 103.186 19.8438 100.896 19.8438C98.373 19.8438 96.4355 20.9687 95.8105 23.1562L98.4512 23.5312C98.7324 22.7109 99.5293 22.0078 100.912 22.0078C102.225 22.0078 102.943 22.6797 102.943 23.8594V23.9062C102.943 24.7188 102.092 24.7578 99.9746 24.9844C97.6465 25.2344 95.4199 25.9297 95.4199 28.6328C95.4199 30.9922 97.1465 32.2422 99.4355 32.2422ZM100.17 30.1641C98.9902 30.1641 98.1465 29.625 98.1465 28.5859C98.1465 27.5 99.0918 27.0469 100.357 26.8672C101.1 26.7656 102.584 26.5781 102.951 26.2812V27.6953C102.951 29.0312 101.873 30.1641 100.17 30.1641ZM108.615 32H111.443V24.9453C111.443 23.4219 112.592 22.3437 114.146 22.3437C114.623 22.3437 115.217 22.4297 115.459 22.5078V19.9062C115.201 19.8594 114.756 19.8281 114.443 19.8281C113.068 19.8281 111.92 20.6094 111.482 22H111.357V20H108.615V32ZM120.555 32.2422C122.438 32.2422 123.563 31.3594 124.078 30.3516H124.172V32H126.891V23.9687C126.891 20.7969 124.305 19.8438 122.016 19.8438C119.492 19.8438 117.555 20.9687 116.93 23.1562L119.57 23.5312C119.852 22.7109 120.648 22.0078 122.031 22.0078C123.344 22.0078 124.063 22.6797 124.063 23.8594V23.9062C124.063 24.7188 123.211 24.7578 121.094 24.9844C118.766 25.2344 116.539 25.9297 116.539 28.6328C116.539 30.9922 118.266 32.2422 120.555 32.2422ZM121.289 30.1641C120.109 30.1641 119.266 29.625 119.266 28.5859C119.266 27.5 120.211 27.0469 121.477 26.8672C122.219 26.7656 123.703 26.5781 124.07 26.2812V27.6953C124.07 29.0312 122.992 30.1641 121.289 30.1641Z" fill="#5E81F4"/>
<rect width="48" height="48" rx="12" fill="#5E81F4"/>
<path d="M23.528 15.672C25.224 15.672 26.704 16.016 27.968 16.704C29.248 17.392 30.24 18.392 30.944 19.704C31.648 21 32 22.552 32 24.36C32 26.12 31.64 27.68 30.92 29.04C30.2 30.4 29.192 31.456 27.896 32.208C26.616 32.96 25.152 33.336 23.504 33.336C21.808 33.336 20.32 32.992 19.04 32.304C17.776 31.616 16.792 30.624 16.088 29.328C15.384 28.016 15.032 26.456 15.032 24.648C15.032 22.888 15.392 21.328 16.112 19.968C16.832 18.608 17.832 17.552 19.112 16.8C20.408 16.048 21.88 15.672 23.528 15.672ZM23.432 16.104C22.552 16.104 21.776 16.464 21.104 17.184C20.432 17.888 19.912 18.88 19.544 20.16C19.192 21.44 19.016 22.904 19.016 24.552C19.016 26.216 19.216 27.68 19.616 28.944C20.032 30.208 20.584 31.184 21.272 31.872C21.976 32.56 22.752 32.904 23.6 32.904C24.48 32.904 25.256 32.552 25.928 31.848C26.6 31.128 27.112 30.128 27.464 28.848C27.832 27.568 28.016 26.104 28.016 24.456C28.016 22.792 27.808 21.328 27.392 20.064C26.992 18.8 26.44 17.824 25.736 17.136C25.048 16.448 24.28 16.104 23.432 16.104Z" fill="white"/>
</svg>
